<?xml version="1.0" ?><svg id="Layer_1" style="enable-background:new 0 0 62 62;" version="1.1" viewBox="0 0 62 62" xml:space="preserve" xmlns="http://www.w3.org/2000/svg" xmlns:xlink="http://www.w3.org/1999/xlink"><style type="text/css">
	.st0{fill:#5FD2FF;}
	.st1{fill:#FFFFFF;}
	.st2{fill:#0082ED;}
	.st3{fill:#2BA8FC;}
	.st4{fill:#CECECE;}
	.st5{fill:#F92B75;}
	.st6{fill:#3BB0FF;}
	.st7{fill:#CE004F;}
	.st8{fill:none;stroke:#ED0C68;stroke-width:5;stroke-linecap:round;stroke-linejoin:round;stroke-miterlimit:10;}
	.st9{fill:#ED0C68;}
	.st10{fill:#78DED4;}
	.st11{fill:#1E5363;}
	.st12{fill:#54C8E8;}
	.st13{fill:#F4F4F4;}
	.st14{fill:#0C82EB;}
	.st15{fill:#00B2E3;}
	.st16{fill:#68A2B9;}
	.st17{fill:#A2C5D3;}
	.st18{fill:#76777A;}
	.st19{fill:#A7A8A9;}
	.st20{fill:#D6D6D6;}
	.st21{fill:none;stroke:#F92B75;stroke-width:5;stroke-linecap:round;stroke-linejoin:round;stroke-miterlimit:10;}
	.st22{fill:#FD4A5C;}
	.st23{fill:#FF8E9F;}
	.st24{fill:none;stroke:#F458A3;stroke-width:5;stroke-linecap:round;stroke-linejoin:round;stroke-miterlimit:10;}
	.st25{fill:#FFB259;}
	.st26{fill:#F32735;}
	.st27{fill:#FF9E18;}
	.st28{fill:#FFC27A;}
	.st29{fill:#FFC56D;}
	.st30{fill:none;stroke:#FD4A5C;stroke-width:5;stroke-linecap:round;stroke-linejoin:round;stroke-miterlimit:10;}
	.st31{fill:#0069A7;}
	.st32{fill:#D8D8D8;}
	.st33{fill:#8CB7C9;}
	.st34{fill:#65BAAF;}
	.st35{fill:#00AF9A;}
	.st36{fill:#00C4B3;}
	.st37{fill:#19D3C5;}
	.st38{fill:none;stroke:#54C8E8;stroke-width:5;stroke-linecap:round;stroke-linejoin:round;stroke-miterlimit:10;}
	.st39{fill:#8331A7;}
	.st40{fill:#009383;}
	.st41{fill:#98989A;}
	.st42{fill:#636569;}
	.st43{fill:#898A8D;}
	.st44{fill:#FFB548;}
	.st45{fill:none;stroke:#FFB548;stroke-width:5;stroke-linecap:round;stroke-linejoin:round;stroke-miterlimit:10;}
	.st46{fill:#ED40A9;}
	.st47{fill:#CB007B;}
	.st48{fill:#E50695;}
	.st49{fill:#D7282F;}
	.st50{fill:#E5E5E5;}
	.st51{fill:#FFA4B4;}
	.st52{fill:#F6A7D7;}
	.st53{fill:#F478C4;}
	.st54{fill:#E0C7E6;}
	.st55{fill:#B980D0;}
	.st56{fill:#D9B7E2;}
	.st57{fill:#BADF93;}
	.st58{fill:#4C9C2E;}
	.st59{fill:#3DAE2B;}
	.st60{fill:#AADA91;}
	.st61{fill:#6ABF4B;}
	.st62{fill:#EFB8A9;}
	.st63{fill:#FECB8B;}
	.st64{fill:#BDE8EF;}
	.st65{fill:#CCA1DD;}
	.st66{fill:#B2B2B2;}
	.st67{fill:none;stroke:#FF8300;stroke-width:5;stroke-linecap:round;stroke-linejoin:round;stroke-miterlimit:10;}
	.st68{fill:none;stroke:#FF9E18;stroke-width:5;stroke-linecap:round;stroke-linejoin:round;stroke-miterlimit:10;}
	.st69{fill:#96DAEA;}
	.st70{fill:#FF8300;}
	.st71{fill:none;stroke:#6ABF4B;stroke-width:5;stroke-linecap:round;stroke-linejoin:round;stroke-miterlimit:10;}
	.st72{fill:none;}
	.st73{fill:#444444;}
	.st74{fill:#FDCF85;}
</style><g><path class="st4" d="M2.5,34.98h4.82l2.85,5.14l4.38-5.14l3.51,11.28l8.66-20.61L31,34.98l4.72-15.35l2.95-0.37L44.53,31l5.85,2.11   l3.2-14.03l5.92-3.34v41.83c0,1.07-0.87,1.93-1.93,1.93H4.43c-1.07,0-1.93-0.87-1.93-1.93V34.98z"/><path class="st5" d="M50.38,35.61c-0.29,0-0.57-0.05-0.85-0.15l-5.85-2.11c-0.6-0.22-1.1-0.66-1.39-1.24l-5.85-11.74   c-0.62-1.24-0.11-2.74,1.12-3.35c1.24-0.62,2.74-0.11,3.35,1.12l5.41,10.85l2.25,0.81l2.57-11.28c0.16-0.69,0.6-1.27,1.21-1.62   l5.92-3.34c1.2-0.68,2.73-0.25,3.41,0.95c0.68,1.2,0.26,2.73-0.95,3.41l-4.96,2.8l-2.96,12.95c-0.16,0.7-0.61,1.29-1.24,1.64   C51.2,35.51,50.79,35.61,50.38,35.61z"/><path class="st6" d="M18.07,48.76c-0.04,0-0.08,0-0.12,0c-1.05-0.05-1.95-0.75-2.27-1.75l-2.16-6.95l-1.44,1.69   c-0.53,0.62-1.34,0.95-2.15,0.87c-0.82-0.08-1.54-0.56-1.94-1.28l-2.14-3.85H2.5c-1.38,0-2.5-1.12-2.5-2.5c0-1.38,1.12-2.5,2.5-2.5   h4.82c0.91,0,1.75,0.49,2.19,1.29l1.1,1.99l2.04-2.4c0.59-0.69,1.51-1.01,2.4-0.83c0.89,0.18,1.61,0.84,1.89,1.71l1.47,4.73   l6-14.29c0.38-0.91,1.27-1.52,2.26-1.53c0.98-0.02,1.9,0.56,2.31,1.46l1.54,3.36l2.79-9.08c0.41-1.32,1.81-2.06,3.12-1.65   c1.32,0.41,2.06,1.8,1.65,3.12l-4.72,15.35c-0.31,0.99-1.19,1.69-2.23,1.76c-1.04,0.06-2-0.51-2.44-1.45l-1.9-4.15l-6.45,15.36   C19.98,48.16,19.07,48.76,18.07,48.76z"/><path class="st5" d="M10.18,42.63c-0.88,0-1.73-0.46-2.19-1.29l-2.85-5.14c-0.67-1.21-0.23-2.73,0.98-3.4   c1.21-0.67,2.73-0.23,3.4,0.98l2.85,5.14c0.67,1.21,0.23,2.73-0.98,3.4C11,42.53,10.58,42.63,10.18,42.63z"/><path class="st5" d="M31,37.48c-0.95,0-1.85-0.54-2.27-1.46l-4.28-9.33c-0.58-1.25-0.02-2.74,1.23-3.31   c1.25-0.57,2.74-0.02,3.31,1.23l4.28,9.33c0.58,1.25,0.02,2.74-1.23,3.31C31.7,37.41,31.35,37.48,31,37.48z"/><path class="st5" d="M18.06,48.76c-1.07,0-2.05-0.69-2.39-1.76l-3.51-11.28c-0.41-1.32,0.33-2.72,1.65-3.13   c1.32-0.41,2.72,0.33,3.13,1.65l3.51,11.28c0.41,1.32-0.33,2.72-1.65,3.13C18.56,48.73,18.31,48.76,18.06,48.76z"/><path class="st2" d="M36.92,14c-1.38,0-2.5-1.12-2.5-2.5v-9c0-1.38,1.12-2.5,2.5-2.5c1.38,0,2.5,1.12,2.5,2.5v9   C39.42,12.88,38.3,14,36.92,14z"/><path class="st2" d="M36.92,62c-1.38,0-2.5-1.12-2.5-2.5V19.26c0-1.38,1.12-2.5,2.5-2.5c1.38,0,2.5,1.12,2.5,2.5V59.5   C39.42,60.88,38.3,62,36.92,62z"/><circle class="st1" cx="36.92" cy="15.74" r="3.52"/><path class="st0" d="M36.92,21.76c-3.32,0-6.02-2.7-6.02-6.02c0-3.32,2.7-6.02,6.02-6.02c3.32,0,6.02,2.7,6.02,6.02   C42.94,19.06,40.24,21.76,36.92,21.76z M36.92,14.71c-0.56,0-1.02,0.46-1.02,1.02c0,0.56,0.46,1.02,1.02,1.02   c0.56,0,1.02-0.46,1.02-1.02C37.94,15.17,37.48,14.71,36.92,14.71z"/><path class="st6" d="M50.38,35.61c-0.18,0-0.37-0.02-0.56-0.06c-1.35-0.31-2.19-1.65-1.88-2.99l3.2-14.03   c0.16-0.69,0.6-1.27,1.21-1.62l5.92-3.34c1.2-0.68,2.73-0.25,3.41,0.95c0.68,1.2,0.26,2.73-0.95,3.41l-4.96,2.8l-2.96,12.95   C52.55,34.83,51.52,35.61,50.38,35.61z"/></g></svg>